<svg version="1.1" id="Layer_1" xmlns="http://www.w3.org/2000/svg" xmlns:xlink="http://www.w3.org/1999/xlink" x="0px" y="0px"
	 width="100%" viewBox="0 0 594 297" enable-background="new 0 0 594 297" xml:space="preserve">
<path fill="#000000" opacity="1.000000" stroke="none" 
	d="
M449.000000,298.000000 
	C299.375153,298.000000 150.250320,298.000000 1.062735,298.000000 
	C1.062735,199.069611 1.062735,100.139183 1.062735,1.104372 
	C198.999969,1.104372 396.999969,1.104372 594.979370,1.104372 
	C594.979370,100.083046 594.979370,199.041534 594.979370,298.000000 
	C546.472473,298.000000 497.986237,298.000000 449.000000,298.000000 
M216.134323,54.963577 
	C215.886368,55.384563 215.638428,55.805546 215.025116,56.620617 
	C214.394943,57.251602 213.764786,57.882587 212.651260,58.924335 
	C207.043671,63.997543 200.548126,68.308327 197.339966,76.206497 
	C196.226379,77.376137 194.911377,78.411606 194.029449,79.735565 
	C181.071320,99.188568 173.590439,120.465950 172.105316,144.032715 
	C162.407669,150.316315 152.710022,156.599899 142.339447,163.090683 
	C140.678253,164.163956 138.941330,165.137161 137.368530,166.327286 
	C129.197449,172.510269 121.068199,178.748535 112.514214,185.172501 
	C112.258369,185.354950 112.067863,185.590286 111.285103,186.061752 
	C110.268440,186.961563 109.251778,187.861389 107.836159,188.944763 
	C107.542946,189.262054 107.249733,189.579346 106.368607,190.082825 
	C105.564186,190.695190 104.759766,191.307556 103.359001,192.226028 
	C93.889023,201.723190 83.777527,210.648407 77.096298,222.578369 
	C68.877472,237.253891 72.399155,248.792831 87.554268,256.113373 
	C89.927048,257.259521 92.471107,258.107117 95.007072,258.850006 
	C107.785202,262.593292 120.901230,262.151764 134.747513,261.953522 
	C135.498993,261.921661 136.250488,261.889832 137.901688,261.934753 
	C140.312851,261.843964 142.724014,261.753143 145.858429,261.746063 
	C146.822098,261.697601 147.785751,261.649139 149.341827,261.553284 
	C149.890152,261.324768 150.438477,261.096252 151.894348,260.959534 
	C176.507462,259.784515 200.131790,253.203934 224.710617,247.913345 
	C229.134659,249.955261 233.558685,251.997177 238.455109,254.536392 
	C245.285446,257.369690 252.115768,260.202972 259.517548,263.486267 
	C262.191498,264.344879 264.814331,265.446960 267.548096,266.020508 
	C280.259155,268.687347 293.097778,269.044983 306.801575,267.714600 
	C310.578125,267.134918 314.375244,266.664154 318.127686,265.956482 
	C333.675568,263.024384 348.110748,257.385315 361.684601,247.888580 
	C367.682190,243.191040 374.026031,238.868118 379.601532,233.713959 
	C389.617523,224.454834 396.829010,212.967468 402.355469,200.652740 
	C406.339111,191.775864 408.886993,182.254669 412.439911,172.745377 
	C412.669891,172.540237 412.860107,172.303192 413.684265,171.863129 
	C417.151672,169.586334 420.600342,167.280380 424.089844,165.037979 
	C436.494690,157.066422 449.188873,149.509567 461.254578,141.055115 
	C475.145569,131.321625 488.000854,120.351395 499.304718,107.498299 
	C506.252960,99.597809 513.572021,92.195747 517.566467,81.551208 
	C517.753723,80.733727 517.940979,79.916245 518.589844,78.480263 
	C518.951355,74.016335 519.312866,69.552414 519.522278,64.405167 
	C518.221008,59.365475 515.123657,55.800419 510.207520,54.255318 
	C503.915924,52.277905 497.549957,49.496826 491.119781,49.208595 
	C475.788116,48.521343 460.399963,49.094341 444.215363,49.084415 
	C442.132233,49.344601 440.049072,49.604782 437.090942,49.926487 
	C433.805084,50.292404 430.443542,50.333851 427.246246,51.079510 
	C412.124451,54.606136 397.047546,58.325249 381.567596,61.450550 
	C376.725800,57.290859 371.884033,53.131165 366.585846,48.482304 
	C363.474640,46.346977 360.587494,43.723785 357.208374,42.171803 
	C348.583679,38.210640 339.739532,34.727230 330.351257,30.666792 
	C324.183685,29.447304 318.016113,28.227816 311.080383,26.819593 
	C293.260315,24.789673 275.676361,25.663889 258.519623,31.287766 
	C256.889832,31.821999 255.498230,33.082966 253.332016,33.957108 
	C251.727280,34.198231 249.923630,34.048447 248.551453,34.746632 
	C241.806885,38.178391 235.176895,41.835358 227.901703,45.742779 
	C224.073410,48.696217 220.245132,51.649658 216.518387,54.988842 
	C216.518387,54.988842 216.904129,54.887318 216.134323,54.963577 
z"/>
<path fill="#3A0C56" opacity="1.000000" stroke="none" 
	d="
M143.012375,162.883484 
	C152.710022,156.599899 162.407669,150.316315 172.500992,144.454346 
	C173.587631,149.613831 174.278580,154.351685 174.971817,159.459412 
	C175.007751,162.884705 175.041397,165.940155 174.726471,169.049774 
	C165.856140,174.741684 156.743790,179.677322 148.975952,186.211365 
	C140.947281,192.964844 133.730988,200.867859 127.076149,209.016739 
	C120.983536,216.477158 123.642174,225.263977 132.297348,229.712402 
	C134.798843,230.998062 137.431488,232.028503 140.176514,233.482101 
	C141.928024,234.513702 143.463730,235.722549 145.094604,235.868546 
	C149.039078,236.221603 153.028259,236.140884 156.998825,236.120087 
	C161.879349,236.094528 166.900726,234.794296 171.086899,238.937820 
	C171.866302,239.709305 174.123703,238.972610 175.699249,238.957764 
	C179.290527,238.923935 182.908508,238.652496 186.458450,239.024033 
	C187.646973,239.148438 188.662064,240.930237 189.756439,241.954437 
	C188.446808,242.728729 187.223175,243.865204 185.809402,244.200897 
	C182.982330,244.872147 180.017578,244.947937 177.171188,245.557129 
	C173.395752,246.365158 169.723022,247.730560 165.922943,248.320709 
	C163.068939,248.763916 160.082047,248.288071 157.157532,248.357269 
	C153.733505,248.438278 150.313507,248.679535 146.890686,248.826157 
	C144.929169,248.910187 142.965515,248.944305 140.645447,249.044220 
	C134.855011,248.742432 129.330124,247.611389 124.010048,248.233109 
	C115.651855,249.209824 108.291687,246.400803 100.698227,244.050797 
	C96.727158,242.821823 95.256615,240.185165 95.493279,236.111984 
	C95.722160,232.172699 95.542877,228.209702 95.542877,224.669815 
	C94.175087,223.964020 91.957741,223.265961 92.000473,222.758057 
	C92.127655,221.246613 92.859581,219.569183 93.862747,218.387482 
	C97.391731,214.230438 102.505997,210.823441 104.475876,206.076599 
	C107.517830,198.746399 113.623398,195.058975 118.799911,190.135513 
	C122.272705,186.832474 125.606071,183.382828 129.300659,179.849731 
	C133.616806,176.089035 137.842407,172.673508 141.532730,168.753998 
	C142.741150,167.470551 142.558731,164.877579 143.012375,162.883484 
z"/>
<path fill="#140546" opacity="1.000000" stroke="none" 
	d="
M381.954620,61.975754 
	C397.047546,58.325249 412.124451,54.606136 427.246246,51.079510 
	C430.443542,50.333851 433.805084,50.292404 437.579102,50.254143 
	C438.849121,51.717934 439.691925,53.873745 440.403320,53.831223 
	C446.949585,53.439995 453.473114,52.668156 460.336060,52.006920 
	C461.112549,52.005730 461.556274,52.004761 462.237000,52.245079 
	C464.762299,53.818867 467.140381,55.021492 469.311493,56.523342 
	C471.178741,57.815006 473.671051,59.130405 474.360352,60.998592 
	C475.668427,64.543861 477.860046,65.084244 481.142578,65.487244 
	C483.623260,65.791794 487.339142,67.091927 488.052490,68.910873 
	C492.161804,79.389633 488.570557,90.540703 479.233459,96.124016 
	C475.766968,98.196854 475.318298,99.904816 477.895691,103.234970 
	C477.483948,103.534500 477.072205,103.834023 476.660461,104.133545 
	C473.078705,102.741661 469.496979,101.349777 466.084473,99.646545 
	C474.862549,86.048149 467.431091,77.918739 457.040680,76.518494 
	C446.792847,75.137451 436.235687,75.069214 425.889465,75.686325 
	C416.206360,76.263885 406.621887,78.494797 396.689362,79.873558 
	C394.629700,78.494133 392.874695,77.239227 391.004272,75.648743 
	C387.899811,71.208138 384.910736,67.103119 381.926331,62.742393 
	C381.938843,62.316376 381.946716,62.146065 381.954620,61.975754 
M475.885376,87.869347 
	C475.316071,86.606972 474.746765,85.344597 474.177460,84.082222 
	C473.704346,84.210960 473.231201,84.339699 472.758087,84.468437 
	C472.758087,87.820580 472.758087,91.172714 472.758087,94.524857 
	C473.421997,94.605263 474.085907,94.685669 474.749817,94.766083 
	C475.140930,92.724808 475.532013,90.683525 475.885376,87.869347 
z"/>
<path fill="#140546" opacity="1.000000" stroke="none" 
	d="
M412.075256,173.020844 
	C408.886993,182.254669 406.339111,191.775864 402.355469,200.652740 
	C396.829010,212.967468 389.617523,224.454834 379.601532,233.713959 
	C374.026031,238.868118 367.682190,243.191040 361.477234,247.669647 
	C364.560211,241.591599 364.560974,241.589172 358.486023,239.641190 
	C354.813049,238.463425 353.232819,235.652664 353.109161,232.094162 
	C352.952484,227.586075 350.699432,225.316376 346.488739,224.042648 
	C340.266785,222.160538 338.361969,219.284805 338.263458,212.851212 
	C336.182770,212.560455 334.086029,212.267456 332.272522,211.776031 
	C339.720093,208.060669 346.884369,204.543732 354.407959,200.948868 
	C369.193848,193.600433 383.620422,186.329926 398.398560,178.950974 
	C403.191803,176.901978 407.633545,174.961411 412.075256,173.020844 
z"/>
<path fill="#1B0748" opacity="1.000000" stroke="none" 
	d="
M331.989258,211.974472 
	C334.086029,212.267456 336.182770,212.560455 338.263458,212.851212 
	C338.361969,219.284805 340.266785,222.160538 346.488739,224.042648 
	C350.699432,225.316376 352.952484,227.586075 353.109161,232.094162 
	C353.232819,235.652664 354.813049,238.463425 358.486023,239.641190 
	C364.560974,241.589172 364.560211,241.591599 361.142273,247.770020 
	C348.110748,257.385315 333.675568,263.024384 318.127686,265.956482 
	C314.375244,266.664154 310.578125,267.134918 306.495331,267.424042 
	C307.908691,263.774445 310.921906,260.479065 311.090881,257.043762 
	C311.500305,248.719833 310.985535,240.282837 309.994141,231.992950 
	C309.628937,228.938736 309.584656,227.323990 312.189484,225.426758 
	C314.465485,223.768997 318.129974,222.181885 316.259399,217.845673 
	C317.380249,217.144333 318.239227,216.598297 319.472504,216.004028 
	C323.894257,214.628662 327.941772,213.301575 331.989258,211.974472 
z"/>
<path fill="#14094E" opacity="1.000000" stroke="none" 
	d="
M462.000000,52.003784 
	C461.556274,52.004761 461.112549,52.005730 459.940430,51.946770 
	C456.632751,51.777351 454.003113,51.940468 451.489166,51.476616 
	C449.270599,51.067253 447.181091,49.958347 445.034607,49.158333 
	C460.399963,49.094341 475.788116,48.521343 491.119781,49.208595 
	C497.549957,49.496826 503.915924,52.277905 510.207520,54.255318 
	C515.123657,55.800419 518.221008,59.365475 519.396667,64.992371 
	C518.890137,70.085976 518.509216,74.592369 518.128296,79.098770 
	C517.940979,79.916245 517.753723,80.733727 517.004761,81.882294 
	C515.496948,82.521248 514.400452,82.619362 513.629639,83.171814 
	C509.363800,86.229240 505.223053,90.337379 502.560150,94.072479 
	C498.541321,99.709435 495.167847,105.019615 489.222870,109.251564 
	C474.564056,119.686333 460.863373,131.458725 446.326538,142.075928 
	C436.244354,149.439590 426.347565,157.387497 414.001617,160.530273 
	C414.330963,154.022736 414.659943,147.982529 414.994904,141.608566 
	C415.009430,140.828323 415.017944,140.381836 415.345367,139.818298 
	C420.428650,136.769119 425.193054,133.837006 430.070038,131.270615 
	C431.039185,134.792923 431.253479,137.814972 427.221008,138.805420 
	C423.098328,139.818054 423.852386,142.290466 425.242218,144.845032 
	C427.600677,149.180038 433.949219,148.994232 436.666962,144.332092 
	C439.263245,139.878311 442.857910,137.078506 447.774414,135.760132 
	C448.871277,135.466019 449.958740,134.910446 450.885742,134.245529 
	C457.890320,129.221359 464.986847,124.310318 471.778503,119.010139 
	C475.642517,115.994682 479.018616,112.346191 482.552795,108.919189 
	C484.338501,107.187599 485.951019,105.278473 487.711426,103.519234 
	C488.751190,102.480095 490.159454,101.745354 491.000763,100.583229 
	C494.406158,95.879257 497.359283,90.818321 501.039337,86.350388 
	C505.460480,80.982658 505.382385,74.642105 504.307098,68.817978 
	C503.808105,66.115501 499.054932,64.146294 496.142029,61.962471 
	C494.549377,60.768478 492.899902,59.429005 491.056671,58.828674 
	C482.877472,56.164715 474.642273,53.661575 466.364471,51.322803 
	C465.076599,50.958931 463.462982,51.747917 462.000000,52.003784 
z"/>
<path fill="#21084A" opacity="1.000000" stroke="none" 
	d="
M315.997559,218.000977 
	C318.129974,222.181885 314.465485,223.768997 312.189484,225.426758 
	C309.584656,227.323990 309.628937,228.938736 309.994141,231.992950 
	C310.985535,240.282837 311.500305,248.719833 311.090881,257.043762 
	C310.921906,260.479065 307.908691,263.774445 306.094635,267.458618 
	C293.097778,269.044983 280.259155,268.687347 267.548096,266.020508 
	C264.814331,265.446960 262.191498,264.344879 259.551270,263.100739 
	C262.257599,261.913544 264.883148,260.745056 267.613647,260.394501 
	C271.929504,259.840485 274.791992,258.303162 275.238342,253.496765 
	C275.398132,251.776093 276.135345,249.843430 277.229645,248.521194 
	C281.914124,242.861069 284.899719,236.606277 285.381042,229.024078 
	C295.817596,225.262604 305.907593,221.631790 315.997559,218.000977 
z"/>
<path fill="#3D105B" opacity="1.000000" stroke="none" 
	d="
M141.002823,249.000885 
	C142.965515,248.944305 144.929169,248.910187 146.890686,248.826157 
	C150.313507,248.679535 153.733505,248.438278 157.157532,248.357269 
	C160.082047,248.288071 163.068939,248.763916 165.922943,248.320709 
	C169.723022,247.730560 173.395752,246.365158 177.171188,245.557129 
	C180.017578,244.947937 182.982330,244.872147 185.809402,244.200897 
	C187.223175,243.865204 188.446808,242.728729 189.756439,241.954437 
	C188.662064,240.930237 187.646973,239.148438 186.458450,239.024033 
	C182.908508,238.652496 179.290527,238.923935 175.699249,238.957764 
	C174.123703,238.972610 171.866302,239.709305 171.086899,238.937820 
	C166.900726,234.794296 161.879349,236.094528 156.998825,236.120087 
	C153.028259,236.140884 149.039078,236.221603 145.094604,235.868546 
	C143.463730,235.722549 141.928024,234.513702 140.568970,233.449890 
	C141.571884,233.174057 142.354858,233.236572 143.412415,233.392578 
	C144.441559,233.640594 145.196106,233.795151 146.421844,233.968658 
	C152.982559,233.817032 159.112701,234.031281 165.152908,233.393600 
	C176.752365,232.169037 188.300827,230.461411 200.223419,228.941803 
	C200.811523,228.918411 201.046677,228.907364 201.499268,229.082550 
	C205.473282,231.194595 209.229889,233.120438 213.172348,235.324280 
	C216.906250,239.381927 220.454300,243.161591 223.992523,247.149933 
	C223.982697,247.358597 223.966980,247.776093 223.966980,247.776093 
	C200.131790,253.203934 176.507462,259.784515 151.396729,260.574585 
	C150.434616,257.180115 148.960892,256.189850 146.007111,257.482208 
	C140.508469,259.888031 135.698013,257.685547 131.380737,254.868774 
	C135.713028,254.067749 139.665710,253.399261 143.618408,252.730774 
	C143.678757,252.260391 143.739090,251.790009 143.799438,251.319626 
	C142.867233,250.546707 141.935028,249.773804 141.002823,249.000885 
z"/>
<path fill="#2D1D73" opacity="1.000000" stroke="none" 
	d="
M330.983185,31.052685 
	C339.739532,34.727230 348.583679,38.210640 357.208374,42.171803 
	C360.587494,43.723785 363.474640,46.346977 366.533600,48.778610 
	C363.567688,49.392574 360.571442,49.384514 357.757965,50.097519 
	C352.343536,51.469669 347.088684,53.478123 341.666687,54.812325 
	C331.145752,57.401230 319.941956,58.211895 311.741608,67.228447 
	C306.309631,72.287987 301.140961,77.152321 295.700073,81.845764 
	C294.274841,81.097084 293.121735,80.519295 292.110260,79.621582 
	C293.284424,76.880417 294.248413,74.426949 295.367676,72.046486 
	C296.630920,69.359825 297.373657,65.895164 299.492004,64.237541 
	C307.977966,57.597183 314.385498,49.903168 317.469116,39.258575 
	C318.903778,34.305962 321.635010,28.728220 329.090637,31.536442 
	C329.589935,31.724499 330.346344,31.229818 330.983185,31.052685 
z"/>
<path fill="#622681" opacity="1.000000" stroke="none" 
	d="
M228.506454,45.412804 
	C235.176895,41.835358 241.806885,38.178391 248.551453,34.746632 
	C249.923630,34.048447 251.727280,34.198231 253.642609,33.996880 
	C253.953201,34.036655 253.968613,34.086761 253.776993,34.328373 
	C250.169601,36.483852 248.924454,38.592793 252.433487,41.781891 
	C253.109375,42.396156 252.846710,44.328693 252.623016,45.582813 
	C252.252899,47.657864 251.187378,49.655453 251.075378,51.721485 
	C250.698486,58.674770 250.385498,65.646400 250.463730,72.606346 
	C250.621628,86.652374 243.331650,97.919487 237.076950,109.592133 
	C236.703873,110.288406 236.002106,111.178780 235.337357,111.290779 
	C229.247345,112.316811 226.144363,117.349632 222.082901,120.646103 
	C223.556030,116.066025 224.876694,111.814651 226.401932,107.638000 
	C228.210907,102.684433 230.913177,97.937668 231.925400,92.842438 
	C233.223663,86.307388 233.147125,79.506935 233.804626,72.834793 
	C234.530060,65.473213 237.147934,58.530312 235.139420,50.603611 
	C233.956512,45.935181 232.966537,45.090405 228.887390,45.870697 
	C228.760437,45.718052 228.506454,45.412800 228.506454,45.412804 
z"/>
<path fill="#762986" opacity="1.000000" stroke="none" 
	d="
M175.075027,168.995590 
	C175.041397,165.940155 175.007751,162.884705 175.041306,159.132599 
	C175.084473,156.634613 175.060425,154.833298 175.369293,153.059418 
	C179.233185,153.703629 181.189026,151.783691 182.941376,149.012024 
	C184.791931,146.085037 187.203171,143.517242 189.126953,140.630890 
	C193.515915,134.045929 198.897766,127.816315 201.768478,120.603432 
	C205.349335,111.606316 206.943497,101.796539 209.149689,92.280670 
	C211.194794,83.459602 213.114777,74.597466 214.640961,65.676620 
	C215.023544,63.440296 213.683151,60.909203 213.134628,58.513573 
	C213.764786,57.882587 214.394943,57.251602 215.447296,56.183434 
	C216.214340,55.459938 216.559235,55.173626 216.904129,54.887314 
	C216.904129,54.887318 216.518387,54.988842 216.801651,54.655617 
	C219.393448,53.154755 221.701965,51.987118 224.154053,51.174355 
	C224.639313,56.555664 225.137802,61.578075 225.266846,66.609962 
	C225.350891,69.886581 225.253510,73.249680 224.601089,76.444077 
	C223.634201,81.178268 222.171600,85.817665 220.788147,90.458099 
	C219.857651,93.579201 218.509583,96.583015 217.690842,99.728447 
	C216.656433,103.702454 216.520569,107.988243 215.011444,111.743431 
	C212.421570,118.187935 209.641510,124.695229 205.897629,130.503433 
	C200.567459,138.772644 196.403137,147.785156 188.574448,154.544006 
	C183.463593,158.956451 180.138153,165.436935 175.814209,170.790283 
	C175.435333,170.058212 175.255173,169.526901 175.075027,168.995590 
z"/>
<path fill="#251463" opacity="1.000000" stroke="none" 
	d="
M312.004883,67.033241 
	C319.941956,58.211895 331.145752,57.401230 341.666687,54.812325 
	C347.088684,53.478123 352.343536,51.469669 357.757965,50.097519 
	C360.571442,49.384514 363.567688,49.392574 366.761780,49.023193 
	C371.884033,53.131165 376.725800,57.290859 381.761108,61.713150 
	C381.946716,62.146065 381.938843,62.316376 381.571533,62.840324 
	C377.819458,63.315979 374.366516,63.907269 371.044342,63.480560 
	C354.767853,61.389961 340.006470,63.465843 329.076752,77.404541 
	C328.295593,78.400734 327.136841,79.337372 325.960876,79.743134 
	C322.423065,80.963875 321.153046,83.550400 320.606201,87.048592 
	C316.970154,88.776733 313.717010,90.443192 310.464996,92.111870 
	C306.645172,94.071922 302.826324,96.033882 299.084473,97.642242 
	C301.263000,93.755089 302.839478,89.732536 305.576965,86.790192 
	C310.908203,81.060051 313.908112,74.942909 312.004883,67.033241 
z"/>
<path fill="#170B57" opacity="1.000000" stroke="none" 
	d="
M414.988922,141.942337 
	C414.659943,147.982529 414.330963,154.022736 413.910034,160.851166 
	C413.548889,165.104355 413.279724,168.569290 413.010559,172.034241 
	C412.860107,172.303192 412.669891,172.540237 412.257568,172.883118 
	C407.633545,174.961411 403.191803,176.901978 398.141174,178.741821 
	C395.962341,178.392853 394.252716,177.617798 392.847534,177.990494 
	C387.650116,179.369095 382.192413,180.446335 377.516296,182.926147 
	C372.470673,185.601913 369.620270,184.665710 366.431702,180.337158 
	C364.422882,177.610168 364.771301,176.360001 367.062317,174.229538 
	C369.672028,171.802719 371.693939,168.743866 373.981354,165.975708 
	C373.991364,165.991714 373.970581,165.982208 374.359863,165.946655 
	C377.820862,164.257492 380.892639,162.603882 383.979614,160.955841 
	C383.994812,160.961411 383.988922,160.993271 384.159912,160.812439 
	C384.558533,160.388504 384.781525,160.141266 385.204712,159.633331 
	C395.269287,153.565308 405.129089,147.753815 414.988922,141.942337 
z"/>
<path fill="#4C227C" opacity="1.000000" stroke="none" 
	d="
M253.974625,34.021599 
	C255.498230,33.082966 256.889832,31.821999 258.519623,31.287766 
	C275.676361,25.663889 293.260315,24.789673 311.095703,27.045162 
	C307.070831,27.517927 303.030579,27.765127 298.527954,28.006390 
	C295.400238,28.014292 292.734955,28.043743 290.069702,28.038448 
	C285.661713,28.029692 283.303223,29.803244 282.139252,34.480286 
	C279.804901,43.859962 276.767853,53.075176 273.757233,62.271976 
	C272.118988,67.276474 269.939972,72.103951 267.899963,77.356888 
	C267.226624,80.645370 267.294708,83.922691 265.960022,86.462967 
	C262.983154,92.128777 258.706879,97.150482 256.041412,102.933090 
	C250.857193,114.179909 243.611816,123.400276 233.128632,129.591858 
	C234.992264,126.089935 236.695557,122.883942 238.586212,119.792519 
	C241.178055,115.554527 244.855743,111.722603 246.401077,107.152924 
	C250.394897,95.342911 259.763214,85.949547 260.529236,72.559631 
	C260.991669,64.475868 263.552002,56.335934 266.288239,48.617779 
	C268.249664,43.085129 263.973053,35.389778 273.619843,31.719088 
	C265.564697,29.794243 259.906921,33.107742 253.968613,34.086761 
	C253.968613,34.086761 253.953201,34.036655 253.974625,34.021599 
z"/>
<path fill="#382078" opacity="1.000000" stroke="none" 
	d="
M298.990356,28.012325 
	C303.030579,27.765127 307.070831,27.517927 311.479797,27.139528 
	C318.016113,28.227816 324.183685,29.447304 330.667236,30.859739 
	C330.346344,31.229818 329.589935,31.724499 329.090637,31.536442 
	C321.635010,28.728220 318.903778,34.305962 317.469116,39.258575 
	C314.385498,49.903168 307.977966,57.597183 299.492004,64.237541 
	C297.373657,65.895164 296.630920,69.359825 295.367676,72.046486 
	C294.248413,74.426949 293.284424,76.880417 291.838745,79.818573 
	C289.062164,83.059036 286.596130,85.701355 284.360352,88.525948 
	C281.329498,92.355019 277.633881,93.591415 273.190491,91.672188 
	C275.249664,85.897301 277.126678,80.443413 279.207855,74.724960 
	C280.999237,72.351288 282.782684,70.360092 284.134888,68.109779 
	C287.472443,62.555435 291.009460,57.064632 293.703339,51.197956 
	C295.784180,46.666332 296.196716,41.362141 298.321594,36.859470 
	C299.806427,33.713062 300.314850,31.088423 298.990356,28.012325 
z"/>
<path fill="#48115E" opacity="1.000000" stroke="none" 
	d="
M131.001160,255.001312 
	C135.698013,257.685547 140.508469,259.888031 146.007111,257.482208 
	C148.960892,256.189850 150.434616,257.180115 150.942963,260.528687 
	C150.438477,261.096252 149.890152,261.324768 148.794830,261.507721 
	C147.210266,261.528870 146.172729,261.595612 145.135178,261.662354 
	C142.724014,261.753143 140.312851,261.843964 137.289276,261.737030 
	C135.784454,261.646454 134.892044,261.753632 133.999619,261.860779 
	C120.901230,262.151764 107.785202,262.593292 95.007072,258.850006 
	C92.471107,258.107117 89.927048,257.259521 87.554268,256.113373 
	C72.399155,248.792831 68.877472,237.253891 77.096298,222.578369 
	C83.777527,210.648407 93.889023,201.723190 103.900177,192.098953 
	C105.279739,191.280136 106.118126,190.588394 106.956520,189.896637 
	C107.249733,189.579346 107.542946,189.262054 108.379288,188.745789 
	C109.929176,187.657394 110.935936,186.767944 111.942696,185.878510 
	C112.067863,185.590286 112.258369,185.354950 113.082901,185.098236 
	C115.102959,185.680908 116.554329,186.337830 117.660576,187.077454 
	C113.642403,190.430939 109.647072,193.409531 106.362389,197.032425 
	C99.188210,204.945312 90.682587,211.968552 87.827843,223.021362 
	C87.425468,224.579254 86.349152,225.980057 85.499100,227.402344 
	C81.925438,233.381699 84.396294,242.703079 89.487373,247.344406 
	C94.224854,251.663330 99.970901,251.894943 105.450279,253.423813 
	C113.839172,255.764511 122.311836,257.281952 131.001160,255.001312 
z"/>
<path fill="#872C8A" opacity="1.000000" stroke="none" 
	d="
M175.036407,153.031998 
	C175.060425,154.833298 175.084473,156.634613 175.039017,158.762726 
	C174.278580,154.351685 173.587631,149.613831 172.863434,144.414703 
	C173.590439,120.465950 181.071320,99.188568 194.029449,79.735565 
	C194.911377,78.411606 196.226379,77.376137 197.936127,76.275375 
	C200.987473,77.943092 201.777634,79.716743 200.141083,82.618248 
	C199.297577,84.113754 199.673309,86.289894 199.470505,88.155479 
	C199.164139,90.973526 198.931030,93.804565 198.482788,96.600578 
	C198.119568,98.866188 197.491760,101.089844 196.969925,103.329453 
	C196.108582,107.026138 195.490738,110.804169 194.304611,114.394058 
	C192.956329,118.474693 191.480026,122.602715 189.378784,126.326050 
	C185.120758,133.871185 184.202347,143.308472 176.528763,148.979263 
	C175.561310,149.694214 175.511414,151.650726 175.036407,153.031998 
z"/>
<path fill="#190952" opacity="1.000000" stroke="none" 
	d="
M413.347412,171.948685 
	C413.279724,168.569290 413.548889,165.104355 413.909607,161.318512 
	C426.347565,157.387497 436.244354,149.439590 446.326538,142.075928 
	C460.863373,131.458725 474.564056,119.686333 489.222870,109.251564 
	C495.167847,105.019615 498.541321,99.709435 502.560150,94.072479 
	C505.223053,90.337379 509.363800,86.229240 513.629639,83.171814 
	C514.400452,82.619362 515.496948,82.521248 516.805847,82.127808 
	C513.572021,92.195747 506.252960,99.597809 499.304718,107.498299 
	C488.000854,120.351395 475.145569,131.321625 461.254578,141.055115 
	C449.188873,149.509567 436.494690,157.066422 424.089844,165.037979 
	C420.600342,167.280380 417.151672,169.586334 413.347412,171.948685 
z"/>
<path fill="#7F2B88" opacity="1.000000" stroke="none" 
	d="
M175.369308,153.059418 
	C175.511414,151.650726 175.561310,149.694214 176.528763,148.979263 
	C184.202347,143.308472 185.120758,133.871185 189.378784,126.326050 
	C191.480026,122.602715 192.956329,118.474693 194.304611,114.394058 
	C195.490738,110.804169 196.108582,107.026138 196.969925,103.329453 
	C197.491760,101.089844 198.119568,98.866188 198.482788,96.600578 
	C198.931030,93.804565 199.164139,90.973526 199.470505,88.155479 
	C199.673309,86.289894 199.297577,84.113754 200.141083,82.618248 
	C201.777634,79.716743 200.987473,77.943092 198.260986,76.171951 
	C200.548126,68.308327 207.043671,63.997543 212.892944,58.718956 
	C213.683151,60.909203 215.023544,63.440296 214.640961,65.676620 
	C213.114777,74.597466 211.194794,83.459602 209.149689,92.280670 
	C206.943497,101.796539 205.349335,111.606316 201.768478,120.603432 
	C198.897766,127.816315 193.515915,134.045929 189.126953,140.630890 
	C187.203171,143.517242 184.791931,146.085037 182.941376,149.012024 
	C181.189026,151.783691 179.233185,153.703629 175.369308,153.059418 
z"/>
<path fill="#230B50" opacity="1.000000" stroke="none" 
	d="
M285.034454,229.154724 
	C284.899719,236.606277 281.914124,242.861069 277.229645,248.521194 
	C276.135345,249.843430 275.398132,251.776093 275.238342,253.496765 
	C274.791992,258.303162 271.929504,259.840485 267.613647,260.394501 
	C264.883148,260.745056 262.257599,261.913544 259.265564,262.875732 
	C252.115768,260.202972 245.285446,257.369690 238.509705,254.232941 
	C241.263733,254.158676 244.518814,255.471100 246.562912,254.422607 
	C253.965683,250.625519 259.282349,244.477448 263.321472,236.842148 
	C268.752350,234.767563 273.865143,232.856476 279.310425,230.835205 
	C281.440094,230.201599 283.237274,229.678162 285.034454,229.154724 
z"/>
<path fill="#2B0D54" opacity="1.000000" stroke="none" 
	d="
M263.003387,237.005630 
	C259.282349,244.477448 253.965683,250.625519 246.562912,254.422607 
	C244.518814,255.471100 241.263733,254.158676 238.273499,253.984283 
	C233.558685,251.997177 229.134659,249.955261 224.338806,247.844727 
	C223.966980,247.776093 223.982697,247.358597 224.406525,247.136597 
	C236.569229,243.621689 248.308136,240.328781 260.416016,237.030945 
	C261.524475,237.019241 262.263916,237.012436 263.003387,237.005630 
z"/>
<path fill="#3D105B" opacity="1.000000" stroke="none" 
	d="
M118.005707,186.994751 
	C116.554329,186.337830 115.102959,185.680908 113.287979,184.995758 
	C121.068199,178.748535 129.197449,172.510269 137.368530,166.327286 
	C138.941330,165.137161 140.678253,164.163956 142.675903,162.987091 
	C142.558731,164.877579 142.741150,167.470551 141.532730,168.753998 
	C137.842407,172.673508 133.616806,176.089035 129.156601,179.591507 
	C127.410332,179.393982 125.555893,178.713303 124.901291,179.322311 
	C122.393753,181.655136 120.271652,184.402252 118.005707,186.994751 
z"/>
<path fill="#15064B" opacity="1.000000" stroke="none" 
	d="
M444.625000,49.121376 
	C447.181091,49.958347 449.270599,51.067253 451.489166,51.476616 
	C454.003113,51.940468 456.632751,51.777351 459.607666,51.946987 
	C453.473114,52.668156 446.949585,53.439995 440.403320,53.831223 
	C439.691925,53.873745 438.849121,51.717934 438.016602,50.223381 
	C440.049072,49.604782 442.132233,49.344601 444.625000,49.121376 
z"/>
<path fill="#190952" opacity="1.000000" stroke="none" 
	d="
M518.359070,78.789520 
	C518.509216,74.592369 518.890137,70.085976 519.472717,65.334030 
	C519.312866,69.552414 518.951355,74.016335 518.359070,78.789520 
z"/>
<path fill="#622681" opacity="1.000000" stroke="none" 
	d="
M224.010498,50.819481 
	C221.701965,51.987118 219.393448,53.154755 216.750885,54.462746 
	C220.245132,51.649658 224.073410,48.696217 228.204071,45.577789 
	C228.506454,45.412800 228.760437,45.718052 228.656845,46.092655 
	C227.039001,47.917999 225.524750,49.368740 224.010498,50.819481 
z"/>
<path fill="#3D105B" opacity="1.000000" stroke="none" 
	d="
M111.613899,185.970123 
	C110.935936,186.767944 109.929176,187.657394 108.578766,188.654022 
	C109.251778,187.861389 110.268440,186.961563 111.613899,185.970123 
z"/>
<path fill="#3D105B" opacity="1.000000" stroke="none" 
	d="
M106.662567,189.989731 
	C106.118126,190.588394 105.279739,191.280136 104.198349,191.945892 
	C104.759766,191.307556 105.564186,190.695190 106.662567,189.989731 
z"/>
<path fill="#3D105B" opacity="1.000000" stroke="none" 
	d="
M134.373566,261.907166 
	C134.892044,261.753632 135.784454,261.646454 136.839417,261.698669 
	C136.250488,261.889832 135.498993,261.921661 134.373566,261.907166 
z"/>
<path fill="#3D105B" opacity="1.000000" stroke="none" 
	d="
M145.496796,261.704224 
	C146.172729,261.595612 147.210266,261.528870 148.498627,261.531433 
	C147.785751,261.649139 146.822098,261.697601 145.496796,261.704224 
z"/>
<path fill="#622681" opacity="1.000000" stroke="none" 
	d="
M216.519226,54.925446 
	C216.559235,55.173626 216.214340,55.459938 215.629974,55.986393 
	C215.638428,55.805546 215.886368,55.384563 216.519226,54.925446 
z"/>
<path fill="#000000" opacity="1.000000" stroke="none" 
	d="
M174.726471,169.049774 
	C175.255173,169.526901 175.435333,170.058212 175.821136,171.190659 
	C176.744995,174.507523 177.463211,177.223236 178.152374,180.311829 
	C178.806381,182.772507 179.489456,184.860321 180.191345,187.320694 
	C182.800446,193.465637 185.390747,199.238007 188.052185,205.333130 
	C188.831146,206.760773 189.538971,207.865662 190.327972,209.301483 
	C192.710968,212.992386 195.004440,216.358093 197.317108,219.710587 
	C199.245453,222.505966 201.196320,225.285812 202.807632,228.116852 
	C202.039642,228.225632 201.601212,228.290085 200.919037,228.382034 
	C200.363113,228.526199 200.094833,228.707748 199.870453,228.954163 
	C188.300827,230.461411 176.752365,232.169037 165.152908,233.393600 
	C159.112701,234.031281 152.982559,233.817032 146.184174,233.790924 
	C144.696136,233.495850 143.916977,233.397476 143.137833,233.299103 
	C142.354858,233.236572 141.571884,233.174057 140.396454,233.143738 
	C137.431488,232.028503 134.798843,230.998062 132.297348,229.712402 
	C123.642174,225.263977 120.983536,216.477158 127.076149,209.016739 
	C133.730988,200.867859 140.947281,192.964844 148.975952,186.211365 
	C156.743790,179.677322 165.856140,174.741684 174.726471,169.049774 
z"/>
<path fill="#410D59" opacity="1.000000" stroke="none" 
	d="
M117.660568,187.077438 
	C120.271652,184.402252 122.393753,181.655136 124.901291,179.322311 
	C125.555893,178.713303 127.410332,179.393982 128.857758,179.740570 
	C125.606071,183.382828 122.272705,186.832474 118.799911,190.135513 
	C113.623398,195.058975 107.517830,198.746399 104.475876,206.076599 
	C102.505997,210.823441 97.391731,214.230438 93.862747,218.387482 
	C92.859581,219.569183 92.127655,221.246613 92.000473,222.758057 
	C91.957741,223.265961 94.175087,223.964020 95.542877,224.669815 
	C95.542877,228.209702 95.722160,232.172699 95.493279,236.111984 
	C95.256615,240.185165 96.727158,242.821823 100.698227,244.050797 
	C108.291687,246.400803 115.651855,249.209824 124.010048,248.233109 
	C129.330124,247.611389 134.855011,248.742432 140.645447,249.044205 
	C141.935028,249.773804 142.867233,250.546707 143.799438,251.319626 
	C143.739090,251.790009 143.678757,252.260391 143.618408,252.730774 
	C139.665710,253.399261 135.713028,254.067749 131.380737,254.868774 
	C122.311836,257.281952 113.839172,255.764511 105.450279,253.423813 
	C99.970901,251.894943 94.224854,251.663330 89.487373,247.344406 
	C84.396294,242.703079 81.925438,233.381699 85.499100,227.402344 
	C86.349152,225.980057 87.425468,224.579254 87.827843,223.021362 
	C90.682587,211.968552 99.188210,204.945312 106.362389,197.032425 
	C109.647072,193.409531 113.642403,190.430939 117.660568,187.077438 
z"/>
<path fill="#000000" opacity="1.000000" stroke="none" 
	d="
M429.957458,130.904907 
	C425.193054,133.837006 420.428650,136.769119 415.296234,139.418716 
	C414.559692,136.414398 414.191193,133.692596 413.823425,130.574509 
	C413.157166,127.123909 412.490173,124.069588 411.833923,120.640594 
	C411.236633,118.163132 410.628540,116.060349 409.990265,113.577385 
	C409.897522,112.437149 409.834961,111.677078 409.680725,110.723763 
	C409.425262,110.292648 409.230682,110.083374 408.931213,109.540070 
	C405.785400,101.988876 402.713715,94.800301 399.488098,87.279495 
	C398.554108,84.630852 397.774048,82.314461 396.993988,79.998070 
	C406.621887,78.494797 416.206360,76.263885 425.889465,75.686325 
	C436.235687,75.069214 446.792847,75.137451 457.040680,76.518494 
	C467.431091,77.918739 474.862549,86.048149 465.854065,99.884789 
	C462.019318,104.193695 458.960876,108.409836 455.070801,111.617340 
	C446.931915,118.328171 438.354675,124.507362 429.957458,130.904907 
z"/>
<path fill="#15064B" opacity="1.000000" stroke="none" 
	d="
M430.070038,131.270599 
	C438.354675,124.507362 446.931915,118.328171 455.070801,111.617340 
	C458.960876,108.409836 462.019318,104.193695 465.684814,100.196136 
	C469.496979,101.349777 473.078705,102.741661 476.660461,104.133545 
	C477.072205,103.834023 477.483948,103.534500 477.895691,103.234970 
	C475.318298,99.904816 475.766968,98.196854 479.233459,96.124016 
	C488.570557,90.540703 492.161804,79.389633 488.052490,68.910873 
	C487.339142,67.091927 483.623260,65.791794 481.142578,65.487244 
	C477.860046,65.084244 475.668427,64.543861 474.360352,60.998592 
	C473.671051,59.130405 471.178741,57.815006 469.311493,56.523342 
	C467.140381,55.021492 464.762299,53.818867 462.237000,52.245079 
	C463.462982,51.747917 465.076599,50.958931 466.364471,51.322803 
	C474.642273,53.661575 482.877472,56.164715 491.056671,58.828674 
	C492.899902,59.429005 494.549377,60.768478 496.142029,61.962471 
	C499.054932,64.146294 503.808105,66.115501 504.307098,68.817978 
	C505.382385,74.642105 505.460480,80.982658 501.039337,86.350388 
	C497.359283,90.818321 494.406158,95.879257 491.000763,100.583229 
	C490.159454,101.745354 488.751190,102.480095 487.711426,103.519234 
	C485.951019,105.278473 484.338501,107.187599 482.552795,108.919189 
	C479.018616,112.346191 475.642517,115.994682 471.778503,119.010139 
	C464.986847,124.310318 457.890320,129.221359 450.885742,134.245529 
	C449.958740,134.910446 448.871277,135.466019 447.774414,135.760132 
	C442.857910,137.078506 439.263245,139.878311 436.666962,144.332092 
	C433.949219,148.994232 427.600677,149.180038 425.242218,144.845032 
	C423.852386,142.290466 423.098328,139.818054 427.221008,138.805420 
	C431.253479,137.814972 431.039185,134.792923 430.070038,131.270599 
z"/>
<path fill="#1D1260" opacity="1.000000" stroke="none" 
	d="
M320.989624,86.987885 
	C321.153046,83.550400 322.423065,80.963875 325.960876,79.743134 
	C327.136841,79.337372 328.295593,78.400734 329.076752,77.404541 
	C340.006470,63.465843 354.767853,61.389961 371.044342,63.480560 
	C374.366516,63.907269 377.819458,63.315979 381.566895,63.096027 
	C384.910736,67.103119 387.899811,71.208138 390.721039,75.753586 
	C387.694336,75.793861 384.835541,75.393707 381.719604,74.849533 
	C379.978333,74.798523 378.494171,74.891533 376.673706,74.983673 
	C375.888885,74.982941 375.440460,74.983070 374.754150,74.731819 
	C366.012939,70.338646 357.687317,72.885139 349.735596,75.861160 
	C344.564575,77.796478 340.106262,81.557114 335.098633,84.035164 
	C331.604492,85.764275 327.720734,86.706062 323.700195,87.926300 
	C322.589508,87.564667 321.789551,87.276276 320.989624,86.987885 
z"/>
<path fill="#170B57" opacity="1.000000" stroke="none" 
	d="
M381.976715,74.993546 
	C384.835541,75.393707 387.694336,75.793861 390.836426,76.089172 
	C392.874695,77.239227 394.629700,78.494133 396.689362,79.873558 
	C397.774048,82.314461 398.554108,84.630852 399.165100,87.519646 
	C395.935150,90.757423 393.021942,90.920425 389.539825,88.440239 
	C388.110382,87.422081 385.621552,87.796631 383.608093,87.727173 
	C382.316986,87.682640 380.967316,88.280159 379.723633,88.084129 
	C368.990845,86.392487 359.076965,88.416885 349.659943,93.852821 
	C346.397583,95.736008 342.570435,96.640732 338.801331,97.764771 
	C337.733826,96.689575 336.866302,95.841995 336.209167,94.736115 
	C344.138947,89.235710 351.860199,83.996368 359.576965,78.750458 
	C364.248260,75.574883 369.285980,73.916283 374.992004,74.983200 
	C375.440460,74.983070 375.888885,74.982941 376.982117,75.080917 
	C379.076843,75.117188 380.526794,75.055367 381.976715,74.993546 
z"/>
<path fill="#15064B" opacity="1.000000" stroke="none" 
	d="
M475.904236,88.255798 
	C475.532013,90.683525 475.140930,92.724808 474.749817,94.766083 
	C474.085907,94.685669 473.421997,94.605263 472.758087,94.524857 
	C472.758087,91.172714 472.758087,87.820580 472.758087,84.468437 
	C473.231201,84.339699 473.704346,84.210960 474.177460,84.082222 
	C474.746765,85.344597 475.316071,86.606972 475.904236,88.255798 
z"/>
<path fill="#1C0D59" opacity="1.000000" stroke="none" 
	d="
M373.971344,165.959702 
	C371.693939,168.743866 369.672028,171.802719 367.062317,174.229538 
	C364.771301,176.360001 364.422882,177.610168 366.431702,180.337158 
	C369.620270,184.665710 372.470673,185.601913 377.516296,182.926147 
	C382.192413,180.446335 387.650116,179.369095 392.847534,177.990494 
	C394.252716,177.617798 395.962341,178.392853 397.789612,178.850250 
	C383.620422,186.329926 369.193848,193.600433 354.100220,200.844803 
	C349.742889,200.365768 346.001892,200.156616 342.374420,199.401749 
	C337.190033,198.322861 335.520447,193.495605 339.272461,189.868835 
	C342.020020,187.212997 342.888733,184.540329 342.316711,180.920197 
	C346.102448,178.899658 349.552643,176.997330 353.315002,174.960205 
	C355.751038,173.549423 357.874908,172.273422 360.307434,170.934631 
	C361.404633,170.598419 362.193237,170.324997 363.343689,169.960236 
	C367.127502,168.565811 370.549438,167.262756 373.971344,165.959702 
z"/>
<path fill="#26105D" opacity="1.000000" stroke="none" 
	d="
M341.981110,181.038422 
	C342.888733,184.540329 342.020020,187.212997 339.272461,189.868835 
	C335.520447,193.495605 337.190033,198.322861 342.374420,199.401749 
	C346.001892,200.156616 349.742889,200.365768 353.740936,200.922714 
	C346.884369,204.543732 339.720093,208.060669 332.272522,211.776031 
	C327.941772,213.301575 323.894257,214.628662 319.151764,215.828949 
	C315.518372,213.925171 312.458008,212.312195 309.715668,210.271729 
	C308.888245,209.656082 308.234711,207.317688 308.713318,206.684723 
	C311.249176,203.331039 313.986053,200.077774 317.008087,197.156815 
	C320.481750,193.799377 324.326172,190.825562 328.265564,187.490631 
	C333.008087,185.210266 337.494598,183.124344 341.981110,181.038422 
z"/>
<path fill="#311461" opacity="1.000000" stroke="none" 
	d="
M328.009521,187.685104 
	C324.326172,190.825562 320.481750,193.799377 317.008087,197.156815 
	C313.986053,200.077774 311.249176,203.331039 308.713318,206.684723 
	C308.234711,207.317688 308.888245,209.656082 309.715668,210.271729 
	C312.458008,212.312195 315.518372,213.925171 318.777496,215.877197 
	C318.239227,216.598297 317.380249,217.144333 316.259399,217.845673 
	C305.907593,221.631790 295.817596,225.262604 285.381042,229.024078 
	C283.237274,229.678162 281.440094,230.201599 279.337738,230.473053 
	C279.707672,226.935074 280.904175,223.524490 276.683105,221.705917 
	C279.309570,218.495651 281.414185,215.341812 284.095306,212.794830 
	C287.374603,209.679611 291.122192,207.053986 294.695526,204.252701 
	C297.439301,202.101776 300.226898,200.006699 303.282074,197.696838 
	C309.711090,194.699646 315.853058,191.892365 322.370026,189.005264 
	C324.499847,188.511993 326.254700,188.098541 328.009521,187.685104 
z"/>
<path fill="#0B0444" opacity="1.000000" stroke="none" 
	d="
M373.981354,165.975708 
	C370.549438,167.262756 367.127502,168.565811 363.482391,169.732956 
	C363.682678,168.814041 364.106201,168.031052 364.529694,167.248062 
	C364.124329,166.946533 363.718994,166.645004 363.313660,166.343475 
	C362.208710,167.894791 361.103729,169.446121 359.998779,170.997437 
	C357.874908,172.273422 355.751038,173.549423 353.277161,174.566605 
	C351.486145,171.410767 350.553497,168.064270 348.483765,165.723007 
	C345.450439,162.291702 344.014252,159.266296 346.948273,155.155243 
	C347.509308,154.369141 347.841370,152.771118 347.422516,152.034973 
	C343.434723,145.026321 347.265015,138.160233 347.996643,131.340393 
	C348.163177,129.788193 352.064789,128.586243 354.305664,127.326981 
	C355.541748,126.632378 357.016541,126.326805 358.176605,125.540367 
	C360.341248,124.072876 362.311768,122.321823 364.447021,120.807167 
	C365.770477,119.868385 367.618011,119.455460 368.597778,118.279503 
	C375.376190,110.143959 384.870636,111.641418 392.733032,113.655617 
	C397.018982,114.753593 399.630890,114.935921 403.055847,113.347473 
	C404.601898,117.861496 406.975677,121.933083 407.318268,126.168953 
	C407.723572,131.179657 409.523224,132.237610 413.822693,130.970795 
	C414.191193,133.692596 414.559692,136.414398 414.977356,139.535782 
	C415.017944,140.381836 415.009430,140.828323 414.994904,141.608566 
	C405.129089,147.753815 395.269287,153.565308 385.028290,159.811432 
	C384.414734,160.483688 384.195343,160.732758 383.988922,160.993271 
	C383.988922,160.993271 383.994812,160.961411 383.601746,160.989853 
	C380.129303,162.672928 377.049927,164.327576 373.970581,165.982208 
	C373.970581,165.982208 373.991364,165.991714 373.981354,165.975708 
z"/>
<path fill="#3F1869" opacity="1.000000" stroke="none" 
	d="
M260.047058,237.035858 
	C248.308136,240.328781 236.569229,243.621689 224.416351,246.927948 
	C220.454300,243.161591 216.906250,239.381927 213.481506,235.141052 
	C215.007523,234.232819 216.406342,233.773209 217.813599,233.341125 
	C221.654877,232.161652 225.538666,231.105286 229.329376,229.781769 
	C231.816986,228.913239 234.089249,227.388733 236.601151,226.635696 
	C247.011688,223.514755 256.516418,218.724930 264.973022,211.661789 
	C264.984558,211.458984 265.006409,211.051559 265.376587,210.960190 
	C268.476196,210.227997 271.205658,209.587173 273.955383,209.218994 
	C270.891144,212.434708 268.179688,215.991943 264.620636,218.153793 
	C260.808258,220.469543 258.690033,222.331039 260.530273,227.139008 
	C261.241638,228.997635 259.946564,231.584763 259.730103,233.855667 
	C259.630890,234.896194 259.929077,235.974625 260.047058,237.035858 
z"/>
<path fill="#4A1B6D" opacity="1.000000" stroke="none" 
	d="
M264.961487,211.864594 
	C256.516418,218.724930 247.011688,223.514755 236.601151,226.635696 
	C234.089249,227.388733 231.816986,228.913239 229.329376,229.781769 
	C225.538666,231.105286 221.654877,232.161652 217.813599,233.341125 
	C216.406342,233.773209 215.007523,234.232819 213.295685,234.863068 
	C209.229889,233.120438 205.473282,231.194595 201.471680,228.946732 
	C201.226700,228.624695 201.162796,228.354538 201.162796,228.354538 
	C201.601212,228.290085 202.039642,228.225632 203.200974,228.089264 
	C207.604294,227.018463 211.284698,226.019592 215.295654,224.964996 
	C216.471542,224.616623 217.316879,224.324005 218.369064,224.030945 
	C218.575912,224.030502 218.989395,224.016861 219.307404,223.959259 
	C220.435043,223.615341 221.244644,223.329056 222.383499,223.028427 
	C223.151413,222.988968 223.590073,222.963821 224.401276,222.864029 
	C233.193527,220.296722 241.613235,217.804062 250.437469,215.261169 
	C255.548508,214.095490 260.255005,212.980042 264.961487,211.864594 
z"/>
<path fill="#3A0C56" opacity="1.000000" stroke="none" 
	d="
M143.412415,233.392578 
	C143.916977,233.397476 144.696136,233.495850 145.712967,233.771973 
	C145.196106,233.795151 144.441559,233.640594 143.412415,233.392578 
z"/>
<path fill="#380F5B" opacity="1.000000" stroke="none" 
	d="
M200.919037,228.382034 
	C201.162796,228.354538 201.226700,228.624695 201.254272,228.760513 
	C201.046677,228.907364 200.811523,228.918411 200.223419,228.941803 
	C200.094833,228.707748 200.363113,228.526199 200.919037,228.382034 
z"/>
<path fill="#3F1869" opacity="1.000000" stroke="none" 
	d="
M273.008362,91.993179 
	C277.633881,93.591415 281.329498,92.355019 284.360352,88.525948 
	C286.596130,85.701355 289.062164,83.059036 291.697144,80.138504 
	C293.121735,80.519295 294.274841,81.097084 295.576843,82.180389 
	C292.300995,88.720345 289.348083,95.093811 285.322449,100.696548 
	C281.057098,106.632912 275.556458,111.667221 271.025482,117.433495 
	C268.836609,120.219147 267.633423,123.779327 265.584839,126.990585 
	C264.120483,126.995506 263.055206,126.998680 261.820496,126.791550 
	C259.434723,124.044304 258.685333,126.200562 257.220520,127.658836 
	C252.282623,132.574692 247.087891,137.232559 242.028992,141.608566 
	C246.383453,133.884705 251.035995,126.714401 254.933411,119.154808 
	C259.964020,109.397278 269.578186,102.758987 273.008362,91.993179 
z"/>
<path fill="#311461" opacity="1.000000" stroke="none" 
	d="
M265.983917,126.988823 
	C267.633423,123.779327 268.836609,120.219147 271.025482,117.433495 
	C275.556458,111.667221 281.057098,106.632912 285.322449,100.696548 
	C289.348083,95.093811 292.300995,88.720345 295.849030,82.351280 
	C301.140961,77.152321 306.309631,72.287987 311.741608,67.228447 
	C313.908112,74.942909 310.908203,81.060051 305.576965,86.790192 
	C302.839478,89.732536 301.263000,93.755089 299.073120,97.648964 
	C298.984344,98.008446 298.963013,98.022522 298.660980,98.159294 
	C296.807983,99.753792 295.106018,101.083023 293.735321,102.694130 
	C290.103302,106.963280 286.943665,111.684624 282.993011,115.620781 
	C276.804932,121.786186 270.113342,127.359314 266.616028,135.793518 
	C265.723969,137.944870 262.916534,139.301987 261.027954,140.638199 
	C262.705811,135.831192 264.344879,131.410004 265.983917,126.988823 
z"/>
<path fill="#582078" opacity="1.000000" stroke="none" 
	d="
M180.172531,186.948120 
	C179.489456,184.860321 178.806381,182.772507 178.337860,180.040039 
	C183.455002,173.634827 188.190674,167.721512 193.294739,162.145416 
	C204.082092,150.360458 212.725784,137.152985 220.251389,122.839493 
	C220.986404,122.121056 221.493240,121.569084 222.001892,121.011475 
	C222.003708,121.005829 222.020996,121.007881 222.020996,121.007881 
	C226.144363,117.349632 229.247345,112.316811 235.337357,111.290779 
	C236.002106,111.178780 236.703873,110.288406 237.076950,109.592133 
	C243.331650,97.919487 250.621628,86.652374 250.463730,72.606346 
	C250.385498,65.646400 250.698486,58.674770 251.075378,51.721485 
	C251.187378,49.655453 252.252899,47.657864 252.623016,45.582813 
	C252.846710,44.328693 253.109375,42.396156 252.433487,41.781891 
	C248.924454,38.592793 250.169601,36.483852 253.776993,34.328373 
	C259.906921,33.107742 265.564697,29.794243 273.619843,31.719088 
	C263.973053,35.389778 268.249664,43.085129 266.288239,48.617779 
	C263.552002,56.335934 260.991669,64.475868 260.529236,72.559631 
	C259.763214,85.949547 250.394897,95.342911 246.401077,107.152924 
	C244.855743,111.722603 241.178055,115.554527 238.586212,119.792519 
	C236.695557,122.883942 234.992264,126.089935 232.988037,129.919525 
	C231.336151,133.022720 230.181427,135.679138 228.420013,137.841309 
	C219.660431,148.593796 210.576950,159.085342 201.936417,169.930801 
	C196.283371,177.026398 190.989014,184.298279 181.172577,185.870941 
	C180.791489,185.932007 180.503769,186.575836 180.172531,186.948120 
z"/>
<path fill="#6D2783" opacity="1.000000" stroke="none" 
	d="
M220.023209,123.005966 
	C212.725784,137.152985 204.082092,150.360458 193.294739,162.145416 
	C188.190674,167.721512 183.455002,173.634827 178.366928,179.667160 
	C177.463211,177.223236 176.744995,174.507523 176.019867,171.391418 
	C180.138153,165.436935 183.463593,158.956451 188.574448,154.544006 
	C196.403137,147.785156 200.567459,138.772644 205.897629,130.503433 
	C209.641510,124.695229 212.421570,118.187935 215.011444,111.743431 
	C216.520569,107.988243 216.656433,103.702454 217.690842,99.728447 
	C218.509583,96.583015 219.857651,93.579201 220.788147,90.458099 
	C222.171600,85.817665 223.634201,81.178268 224.601089,76.444077 
	C225.253510,73.249680 225.350891,69.886581 225.266846,66.609962 
	C225.137802,61.578075 224.639313,56.555664 224.154053,51.174358 
	C225.524750,49.368740 227.039001,47.917999 228.783798,46.245300 
	C232.966537,45.090405 233.956512,45.935181 235.139420,50.603611 
	C237.147934,58.530312 234.530060,65.473213 233.804626,72.834793 
	C233.147125,79.506935 233.223663,86.307388 231.925400,92.842438 
	C230.913177,97.937668 228.210907,102.684433 226.401932,107.638000 
	C224.876694,111.814651 223.556030,116.066025 222.082901,120.646103 
	C222.020996,121.007881 222.003708,121.005829 221.773315,121.177368 
	C221.036331,121.901268 220.529770,122.453613 220.023209,123.005966 
z"/>
<path fill="#26105D" opacity="1.000000" stroke="none" 
	d="
M320.606201,87.048592 
	C321.789551,87.276276 322.589508,87.564667 323.569519,88.264053 
	C322.196442,92.106247 320.997620,95.761681 319.003113,98.913620 
	C316.327240,103.142281 313.036194,106.981651 309.804626,111.218895 
	C308.729736,111.971046 307.859436,112.492462 306.692017,113.158890 
	C304.600189,115.530907 302.805481,117.757904 300.842163,120.152969 
	C300.449371,120.545784 300.226501,120.771805 299.737518,121.197594 
	C296.795319,124.317085 293.472565,126.881920 291.618988,130.254272 
	C289.563477,133.993958 286.970398,136.147705 282.709717,136.839264 
	C281.277740,135.119766 280.131561,133.555344 279.121246,131.663910 
	C284.290283,123.600052 289.453400,115.943291 294.292389,108.086876 
	C296.218597,104.959564 297.427551,101.390488 298.963013,98.022530 
	C298.963013,98.022522 298.984344,98.008446 298.995697,98.001724 
	C302.826324,96.033882 306.645172,94.071922 310.464996,92.111870 
	C313.717010,90.443192 316.970154,88.776733 320.606201,87.048592 
z"/>
<path fill="#1C0D59" opacity="1.000000" stroke="none" 
	d="
M374.359863,165.946655 
	C377.049927,164.327576 380.129303,162.672928 383.586517,160.984283 
	C380.892639,162.603882 377.820862,164.257492 374.359863,165.946655 
z"/>
<path fill="#1C0D59" opacity="1.000000" stroke="none" 
	d="
M384.159912,160.812439 
	C384.195343,160.732758 384.414734,160.483688 384.823547,160.067978 
	C384.781525,160.141266 384.558533,160.388504 384.159912,160.812439 
z"/>
<path fill="#4A1B6D" opacity="1.000000" stroke="none" 
	d="
M180.191345,187.320694 
	C180.503769,186.575836 180.791489,185.932007 181.172577,185.870941 
	C190.989014,184.298279 196.283371,177.026398 201.936417,169.930801 
	C210.576950,159.085342 219.660431,148.593796 228.420013,137.841309 
	C230.181427,135.679138 231.336151,133.022720 232.911194,130.266525 
	C243.611816,123.400276 250.857193,114.179909 256.041412,102.933090 
	C258.706879,97.150482 262.983154,92.128777 265.960022,86.462967 
	C267.294708,83.922691 267.226624,80.645370 268.232178,77.227005 
	C272.114044,76.164169 275.558868,75.576851 279.003662,74.989525 
	C277.126678,80.443413 275.249664,85.897301 273.190491,91.672188 
	C269.578186,102.758987 259.964020,109.397278 254.933411,119.154808 
	C251.035995,126.714401 246.383453,133.884705 241.810120,141.864746 
	C238.722290,146.769440 235.924362,151.060135 233.048920,155.298233 
	C230.771103,158.655487 228.688202,162.207245 226.003799,165.212708 
	C221.237579,170.548965 216.087189,175.542572 211.086029,180.668320 
	C205.435715,186.459351 199.740158,192.206680 194.131775,198.037964 
	C191.985397,200.269638 190.025757,202.680923 187.981033,205.010376 
	C185.390747,199.238007 182.800446,193.465637 180.191345,187.320694 
z"/>
<path fill="#42217A" opacity="1.000000" stroke="none" 
	d="
M279.207825,74.724960 
	C275.558868,75.576851 272.114044,76.164169 268.337036,76.881378 
	C269.939972,72.103951 272.118988,67.276474 273.757233,62.271976 
	C276.767853,53.075176 279.804901,43.859962 282.139252,34.480286 
	C283.303223,29.803244 285.661713,28.029692 290.069702,28.038448 
	C292.734955,28.043743 295.400238,28.014292 298.527954,28.006390 
	C300.314850,31.088423 299.806427,33.713062 298.321594,36.859470 
	C296.196716,41.362141 295.784180,46.666332 293.703339,51.197956 
	C291.009460,57.064632 287.472443,62.555435 284.134888,68.109779 
	C282.782684,70.360092 280.999237,72.351288 279.207825,74.724960 
z"/>
<path fill="#3F1363" opacity="1.000000" stroke="none" 
	d="
M260.416016,237.030945 
	C259.929077,235.974625 259.630890,234.896194 259.730103,233.855667 
	C259.946564,231.584763 261.241638,228.997635 260.530273,227.139008 
	C258.690033,222.331039 260.808258,220.469543 264.620636,218.153793 
	C268.179688,215.991943 270.891144,212.434708 274.260468,209.035950 
	C280.693878,206.118439 286.842499,203.656647 293.360535,201.108490 
	C296.818329,199.977020 299.906677,198.931900 302.995026,197.886780 
	C300.226898,200.006699 297.439301,202.101776 294.695526,204.252701 
	C291.122192,207.053986 287.374603,209.679611 284.095306,212.794830 
	C281.414185,215.341812 279.309570,218.495651 276.683105,221.705917 
	C280.904175,223.524490 279.707672,226.935074 279.005249,230.583221 
	C273.865143,232.856476 268.752350,234.767563 263.321472,236.842148 
	C262.263916,237.012436 261.524475,237.019241 260.416016,237.030945 
z"/>
<path fill="#380F5B" opacity="1.000000" stroke="none" 
	d="
M265.584839,126.990585 
	C264.344879,131.410004 262.705811,135.831192 260.841797,140.921631 
	C259.513824,143.229034 258.183777,144.759766 257.348175,146.524551 
	C254.235733,153.097900 251.335144,159.771179 248.261810,166.363480 
	C244.582672,174.255234 238.935135,181.084381 237.547668,190.258591 
	C236.833542,194.980469 233.591461,199.634140 230.566437,203.615646 
	C226.462708,209.016968 217.809326,212.382446 224.105011,221.472061 
	C224.325607,221.790543 224.065048,222.442276 224.028748,222.938675 
	C223.590073,222.963821 223.151413,222.988968 222.138260,222.967484 
	C220.705658,223.286194 219.847519,223.651520 218.989395,224.016861 
	C218.989395,224.016861 218.575912,224.030502 218.036453,224.096375 
	C216.653030,224.448410 215.809067,224.734573 214.965103,225.020721 
	C211.284698,226.019592 207.604294,227.018463 203.530548,228.044937 
	C201.196320,225.285812 199.245453,222.505966 197.317108,219.710587 
	C195.004440,216.358093 192.710968,212.992386 190.719055,209.343597 
	C195.021667,208.487762 199.405777,208.756180 202.897690,207.120209 
	C206.433105,205.463837 208.795410,201.470703 212.182724,199.298065 
	C220.561081,193.924118 225.655197,186.124603 230.584213,177.743362 
	C240.665268,160.601624 251.478363,143.890381 261.989990,127.001854 
	C263.055206,126.998680 264.120483,126.995506 265.584839,126.990585 
z"/>
<path fill="#3F1363" opacity="1.000000" stroke="none" 
	d="
M261.820496,126.791550 
	C251.478363,143.890381 240.665268,160.601624 230.584213,177.743362 
	C225.655197,186.124603 220.561081,193.924118 212.182724,199.298065 
	C208.795410,201.470703 206.433105,205.463837 202.897690,207.120209 
	C199.405777,208.756180 195.021667,208.487762 190.637863,209.012665 
	C189.538971,207.865662 188.831146,206.760773 188.052185,205.333130 
	C190.025757,202.680923 191.985397,200.269638 194.131775,198.037964 
	C199.740158,192.206680 205.435715,186.459351 211.086029,180.668320 
	C216.087189,175.542572 221.237579,170.548965 226.003799,165.212708 
	C228.688202,162.207245 230.771103,158.655487 233.048920,155.298233 
	C235.924362,151.060135 238.722290,146.769440 241.772537,142.245270 
	C247.087891,137.232559 252.282623,132.574692 257.220520,127.658836 
	C258.685333,126.200562 259.434723,124.044304 261.820496,126.791550 
z"/>
<path fill="#14094E" opacity="1.000000" stroke="none" 
	d="
M413.823425,130.574509 
	C409.523224,132.237610 407.723572,131.179657 407.318268,126.168953 
	C406.975677,121.933083 404.601898,117.861496 402.908630,113.049690 
	C396.106262,105.219971 387.582520,101.878700 378.251129,100.582909 
	C375.797333,100.242165 373.129486,101.946503 370.521515,102.114288 
	C363.820953,102.545395 357.607483,104.645447 352.367554,108.534302 
	C345.902893,113.332153 340.137573,119.061897 333.890015,124.168694 
	C331.888031,125.805138 329.314301,126.742088 326.914734,127.629990 
	C325.884857,124.505966 324.942444,121.751015 324.133789,118.679138 
	C329.178833,111.572281 334.090057,104.782341 339.001251,97.992386 
	C342.570435,96.640732 346.397583,95.736008 349.659943,93.852821 
	C359.076965,88.416885 368.990845,86.392487 379.723633,88.084129 
	C380.967316,88.280159 382.316986,87.682640 383.608093,87.727173 
	C385.621552,87.796631 388.110382,87.422081 389.539825,88.440239 
	C393.021942,90.920425 395.935150,90.757423 399.319061,87.851883 
	C402.713715,94.800301 405.785400,101.988876 409.051910,109.715805 
	C409.413788,110.481621 409.589020,110.702576 409.772400,110.917007 
	C409.834961,111.677078 409.897522,112.437149 409.909271,113.927750 
	C410.513397,116.777275 411.168304,118.896271 411.823181,121.015266 
	C412.490173,124.069588 413.157166,127.123909 413.823425,130.574509 
z"/>
<path fill="#0B0444" opacity="1.000000" stroke="none" 
	d="
M411.833923,120.640594 
	C411.168304,118.896271 410.513397,116.777275 409.939484,114.307922 
	C410.628540,116.060349 411.236633,118.163132 411.833923,120.640594 
z"/>
<path fill="#0B0444" opacity="1.000000" stroke="none" 
	d="
M409.680725,110.723763 
	C409.589020,110.702576 409.413788,110.481621 409.126038,110.078430 
	C409.230682,110.083374 409.425262,110.292648 409.680725,110.723763 
z"/>
<path fill="#1C0D59" opacity="1.000000" stroke="none" 
	d="
M310.009247,110.988159 
	C313.036194,106.981651 316.327240,103.142281 319.003113,98.913620 
	C320.997620,95.761681 322.196442,92.106247 323.880310,88.337296 
	C327.720734,86.706062 331.604492,85.764275 335.098633,84.035164 
	C340.106262,81.557114 344.564575,77.796478 349.735596,75.861160 
	C357.687317,72.885139 366.012939,70.338646 374.754150,74.731819 
	C369.285980,73.916283 364.248260,75.574883 359.576965,78.750458 
	C351.860199,83.996368 344.138947,89.235710 335.855286,94.845497 
	C330.869995,97.344650 326.224884,99.118004 322.090057,101.706551 
	C317.805481,104.388855 314.015533,107.861313 310.009247,110.988159 
z"/>
<path fill="#1C0D59" opacity="1.000000" stroke="none" 
	d="
M381.719604,74.849533 
	C380.526794,75.055367 379.076843,75.117188 377.318481,75.081772 
	C378.494171,74.891533 379.978333,74.798523 381.719604,74.849533 
z"/>
<path fill="#190952" opacity="1.000000" stroke="none" 
	d="
M309.804626,111.218903 
	C314.015533,107.861313 317.805481,104.388855 322.090057,101.706551 
	C326.224884,99.118004 330.869995,97.344650 335.644867,95.103806 
	C336.866302,95.841995 337.733826,96.689575 338.801331,97.764771 
	C334.090057,104.782341 329.178833,111.572281 323.825256,118.817390 
	C318.894196,122.298836 314.076508,124.947647 310.026123,128.476990 
	C307.061279,131.060440 305.198090,134.876694 302.666046,137.999222 
	C300.941498,140.125900 298.909882,142.003494 297.013611,143.527496 
	C297.228455,136.862961 295.966217,130.460831 299.944824,124.796600 
	C300.546814,123.939537 300.013214,122.284836 300.004913,120.999084 
	C300.226501,120.771805 300.449371,120.545784 301.148376,120.019272 
	C303.411865,117.482964 305.200531,115.248421 306.989166,113.013878 
	C307.859436,112.492462 308.729736,111.971046 309.804626,111.218903 
z"/>
<path fill="#110545" opacity="1.000000" stroke="none" 
	d="
M327.002167,127.999084 
	C329.314301,126.742088 331.888031,125.805138 333.890015,124.168694 
	C340.137573,119.061897 345.902893,113.332153 352.367554,108.534302 
	C357.607483,104.645447 363.820953,102.545395 370.521515,102.114288 
	C373.129486,101.946503 375.797333,100.242165 378.251129,100.582909 
	C387.582520,101.878700 396.106262,105.219971 402.837433,112.679962 
	C399.630890,114.935921 397.018982,114.753593 392.733032,113.655617 
	C384.870636,111.641418 375.376190,110.143959 368.597778,118.279503 
	C367.618011,119.455460 365.770477,119.868385 364.447021,120.807167 
	C362.311768,122.321823 360.341248,124.072876 358.176605,125.540367 
	C357.016541,126.326805 355.541748,126.632378 354.305664,127.326981 
	C352.064789,128.586243 348.163177,129.788193 347.996643,131.340393 
	C347.265015,138.160233 343.434723,145.026321 347.422516,152.034973 
	C347.841370,152.771118 347.509308,154.369141 346.948273,155.155243 
	C344.014252,159.266296 345.450439,162.291702 348.483765,165.723007 
	C350.553497,168.064270 351.486145,171.410767 352.964996,174.701385 
	C349.552643,176.997330 346.102448,178.899658 342.316711,180.920212 
	C337.494598,183.124344 333.008087,185.210266 328.265564,187.490631 
	C326.254700,188.098541 324.499847,188.511993 322.314697,188.640396 
	C321.476624,187.273224 321.363678,185.891861 320.615753,185.155121 
	C312.928497,177.582901 313.270599,167.882034 313.384430,158.265549 
	C313.409485,156.150772 313.886749,154.023865 314.316589,151.935638 
	C314.907959,149.062439 315.652405,146.220764 316.258575,143.671371 
	C318.418427,140.868362 320.670868,138.165421 322.667114,135.284897 
	C324.272980,132.967758 325.568817,130.435760 327.002167,127.999084 
z"/>
<path fill="#110545" opacity="1.000000" stroke="none" 
	d="
M360.307434,170.934631 
	C361.103729,169.446121 362.208710,167.894791 363.313660,166.343475 
	C363.718994,166.645004 364.124329,166.946533 364.529694,167.248062 
	C364.106201,168.031052 363.682678,168.814041 363.120483,169.824310 
	C362.193237,170.324997 361.404633,170.598419 360.307434,170.934631 
z"/>
<path fill="#1A084A" opacity="1.000000" stroke="none" 
	d="
M326.914734,127.630005 
	C325.568817,130.435760 324.272980,132.967758 322.667114,135.284897 
	C320.670868,138.165421 318.418427,140.868362 316.258575,143.671371 
	C315.652405,146.220764 314.907959,149.062439 314.316589,151.935638 
	C313.886749,154.023865 313.409485,156.150772 313.384430,158.265549 
	C313.270599,167.882034 312.928497,177.582901 320.615753,185.155121 
	C321.363678,185.891861 321.476624,187.273224 321.939697,188.720215 
	C315.853058,191.892365 309.711090,194.699646 303.282074,197.696838 
	C299.906677,198.931900 296.818329,199.977020 293.254150,200.763458 
	C288.286438,196.768860 288.500946,191.119614 287.358459,186.173279 
	C286.678467,183.229431 287.620026,179.887985 287.957397,176.738663 
	C288.299377,173.546295 288.896851,170.379318 289.177216,167.183212 
	C289.303650,165.742081 288.314606,163.929642 288.889130,162.846558 
	C292.112030,156.770355 291.350189,148.979889 297.015594,143.992462 
	C298.909882,142.003494 300.941498,140.125900 302.666046,137.999222 
	C305.198090,134.876694 307.061279,131.060440 310.026123,128.476990 
	C314.076508,124.947647 318.894196,122.298836 323.691467,119.134308 
	C324.942444,121.751015 325.884857,124.505966 326.914734,127.630005 
z"/>
<path fill="#230B50" opacity="1.000000" stroke="none" 
	d="
M297.013611,143.527496 
	C291.350189,148.979889 292.112030,156.770355 288.889130,162.846558 
	C288.314606,163.929642 289.303650,165.742081 289.177216,167.183212 
	C288.896851,170.379318 288.299377,173.546295 287.957397,176.738663 
	C287.620026,179.887985 286.678467,183.229431 287.358459,186.173279 
	C288.500946,191.119614 288.286438,196.768860 292.884705,200.849823 
	C286.842499,203.656647 280.693878,206.118439 274.240173,208.763306 
	C271.205658,209.587173 268.476196,210.227997 265.490112,210.675110 
	C265.455841,209.518173 265.931519,208.535721 265.860016,207.594833 
	C265.346893,200.842178 264.684784,194.100998 264.147675,187.349976 
	C263.825745,183.303482 263.798187,179.366455 267.472015,176.405533 
	C268.118225,175.884735 268.354095,173.743393 267.839813,173.089828 
	C265.801147,170.499069 266.877777,169.011032 268.995392,167.284607 
	C270.213837,166.291245 271.574280,164.809860 271.806488,163.375824 
	C273.383514,153.636871 277.389923,144.991562 282.995483,136.994370 
	C286.970398,136.147705 289.563477,133.993958 291.618988,130.254272 
	C293.472565,126.881920 296.795319,124.317085 299.737518,121.197594 
	C300.013214,122.284836 300.546814,123.939537 299.944824,124.796600 
	C295.966217,130.460831 297.228455,136.862961 297.013611,143.527496 
z"/>
<path fill="#2B0D54" opacity="1.000000" stroke="none" 
	d="
M282.709717,136.839264 
	C277.389923,144.991562 273.383514,153.636871 271.806488,163.375824 
	C271.574280,164.809860 270.213837,166.291245 268.995392,167.284607 
	C266.877777,169.011032 265.801147,170.499069 267.839813,173.089828 
	C268.354095,173.743393 268.118225,175.884735 267.472015,176.405533 
	C263.798187,179.366455 263.825745,183.303482 264.147675,187.349976 
	C264.684784,194.100998 265.346893,200.842178 265.860016,207.594833 
	C265.931519,208.535721 265.455841,209.518173 265.119934,210.766479 
	C265.006409,211.051559 264.984558,211.458984 264.973022,211.661774 
	C260.255005,212.980042 255.548508,214.095490 250.329468,214.902252 
	C247.822037,212.461838 244.148300,210.324493 244.155396,208.199417 
	C244.174591,202.434097 245.418839,196.589478 246.840271,190.943192 
	C247.707016,187.500244 249.958893,184.429962 251.306259,181.078781 
	C253.689987,175.149948 255.377991,168.892120 258.241028,163.217987 
	C261.661621,156.438858 265.840820,150.016693 270.018311,143.654572 
	C272.702545,139.566589 275.976013,135.865463 278.985352,131.990936 
	C280.131561,133.555344 281.277740,135.119766 282.709717,136.839264 
z"/>
<path fill="#320E58" opacity="1.000000" stroke="none" 
	d="
M279.121246,131.663910 
	C275.976013,135.865463 272.702545,139.566589 270.018311,143.654572 
	C265.840820,150.016693 261.661621,156.438858 258.241028,163.217987 
	C255.377991,168.892120 253.689987,175.149948 251.306259,181.078781 
	C249.958893,184.429962 247.707016,187.500244 246.840271,190.943192 
	C245.418839,196.589478 244.174591,202.434097 244.155396,208.199417 
	C244.148300,210.324493 247.822037,212.461838 249.924927,214.952484 
	C241.613235,217.804062 233.193527,220.296722 224.401276,222.864029 
	C224.065048,222.442276 224.325607,221.790543 224.105011,221.472061 
	C217.809326,212.382446 226.462708,209.016968 230.566437,203.615646 
	C233.591461,199.634140 236.833542,194.980469 237.547668,190.258591 
	C238.935135,181.084381 244.582672,174.255234 248.261810,166.363480 
	C251.335144,159.771179 254.235733,153.097900 257.348175,146.524551 
	C258.183777,144.759766 259.513824,143.229034 260.803009,141.307434 
	C262.916534,139.301987 265.723969,137.944870 266.616028,135.793518 
	C270.113342,127.359314 276.804932,121.786186 282.993011,115.620781 
	C286.943665,111.684624 290.103302,106.963280 293.735321,102.694130 
	C295.106018,101.083023 296.807983,99.753792 298.661011,98.159302 
	C297.427551,101.390488 296.218597,104.959564 294.292389,108.086876 
	C289.453400,115.943291 284.290283,123.600052 279.121246,131.663910 
z"/>
<path fill="#320E58" opacity="1.000000" stroke="none" 
	d="
M219.307404,223.959259 
	C219.847519,223.651520 220.705658,223.286194 221.809021,222.981812 
	C221.244644,223.329056 220.435043,223.615341 219.307404,223.959259 
z"/>
<path fill="#320E58" opacity="1.000000" stroke="none" 
	d="
M215.295654,224.964996 
	C215.809067,224.734573 216.653030,224.448410 217.829605,224.096817 
	C217.316879,224.324005 216.471542,224.616623 215.295654,224.964996 
z"/>
<path fill="#622681" opacity="1.000000" stroke="none" 
	d="
M220.251389,122.839493 
	C220.529770,122.453613 221.036331,121.901268 221.771500,121.183014 
	C221.493240,121.569084 220.986404,122.121056 220.251389,122.839493 
z"/>
<path fill="#1C0D59" opacity="1.000000" stroke="none" 
	d="
M306.692017,113.158890 
	C305.200531,115.248421 303.411865,117.482964 301.317017,119.851212 
	C302.805481,117.757904 304.600189,115.530907 306.692017,113.158890 
z"/>
</svg>